<svg width="18" height="9" viewBox="0 0 18 9" fill="none" xmlns="http://www.w3.org/2000/svg">
<path d="M6.36923 4.03846C6.36923 5.12709 7.56923 6.04013 9 6.04013C10.4308 6.04013 11.6308 5.12709 11.6308 4.03846C11.6308 2.94983 10.4308 2.03679 9 2.03679C7.56923 2.03679 6.36923 2.94983 6.36923 4.03846ZM10.1077 8.35786C13.2 7.8311 18 4.70569 18 4.70569C18 4.70569 14.4462 0.491639 9.69231 0.0351169C9.41538 -2.01465e-07 8.49231 0 8.30769 0C3.69231 0.351171 0 4.81104 0 4.81104C0 4.81104 4.01538 7.8311 7.84615 8.28763C8.26154 8.42809 9.64615 8.42809 10.1077 8.35786ZM4.43077 4.24916C4.43077 2.42308 6.46154 0.94816 9 0.94816C11.5385 0.94816 13.5692 2.42308 13.5692 4.24916C13.5692 6.07525 11.5385 7.51505 9 7.51505C6.46154 7.51505 4.43077 6.04013 4.43077 4.24916Z" fill="white"/>
</svg>
