<svg width="79" height="22" viewBox="0 0 79 22" fill="none" xmlns="http://www.w3.org/2000/svg">
<path d="M11.2861 15.2368V17H2.62744V15.2368H11.2861ZM3.06543 0.648438V17H0.897949V0.648438H3.06543ZM10.1406 7.67871V9.44189H2.62744V7.67871H10.1406ZM11.1738 0.648438V2.42285H2.62744V0.648438H11.1738ZM15.0596 4.84863L17.7212 9.27344L20.4165 4.84863H22.8535L18.8779 10.8457L22.9771 17H20.5737L17.7661 12.4404L14.9585 17H12.5439L16.6318 10.8457L12.6675 4.84863H15.0596ZM27.1436 7.18457V21.6719H25.0547V4.84863H26.9639L27.1436 7.18457ZM35.3306 10.8232V11.0591C35.3306 11.9425 35.2257 12.7624 35.0161 13.5186C34.8065 14.2673 34.4995 14.9186 34.0952 15.4727C33.6984 16.0267 33.208 16.4572 32.624 16.7642C32.04 17.0711 31.37 17.2246 30.6138 17.2246C29.8426 17.2246 29.1613 17.0973 28.5698 16.8428C27.9784 16.5882 27.4767 16.2176 27.0649 15.731C26.6532 15.2443 26.3237 14.6603 26.0767 13.979C25.8371 13.2977 25.6724 12.5303 25.5825 11.6768V10.4189C25.6724 9.52051 25.8408 8.71566 26.0879 8.00439C26.335 7.29313 26.6606 6.68669 27.0649 6.18506C27.4767 5.67594 27.9746 5.29036 28.5586 5.02832C29.1426 4.75879 29.8164 4.62402 30.5801 4.62402C31.3438 4.62402 32.0213 4.77376 32.6128 5.07324C33.2043 5.36523 33.7021 5.78451 34.1064 6.33105C34.5107 6.8776 34.814 7.53271 35.0161 8.29639C35.2257 9.05257 35.3306 9.89486 35.3306 10.8232ZM33.2417 11.0591V10.8232C33.2417 10.2168 33.1781 9.64779 33.0508 9.11621C32.9235 8.57715 32.7251 8.10547 32.4556 7.70117C32.1935 7.28939 31.8566 6.96745 31.4448 6.73535C31.033 6.49577 30.5426 6.37598 29.9736 6.37598C29.4495 6.37598 28.9928 6.46582 28.6035 6.64551C28.2217 6.8252 27.896 7.06852 27.6265 7.37549C27.3569 7.67497 27.1361 8.01937 26.9639 8.40869C26.7992 8.79053 26.6756 9.18734 26.5933 9.59912V12.5078C26.743 13.0319 26.9526 13.526 27.2222 13.9902C27.4917 14.4469 27.8511 14.8175 28.3003 15.1021C28.7495 15.3791 29.3148 15.5176 29.9961 15.5176C30.5576 15.5176 31.0405 15.4015 31.4448 15.1694C31.8566 14.9299 32.1935 14.6042 32.4556 14.1924C32.7251 13.7806 32.9235 13.3089 33.0508 12.7773C33.1781 12.2383 33.2417 11.6655 33.2417 11.0591ZM40.0586 6.75781V17H37.981V4.84863H40.0024L40.0586 6.75781ZM43.8545 4.78125L43.8433 6.71289C43.6711 6.67546 43.5063 6.65299 43.3491 6.64551C43.1994 6.63053 43.0272 6.62305 42.8325 6.62305C42.3534 6.62305 41.9303 6.69792 41.5635 6.84766C41.1966 6.9974 40.8859 7.20703 40.6313 7.47656C40.3768 7.74609 40.1746 8.06803 40.0249 8.44238C39.8826 8.80924 39.7891 9.21354 39.7441 9.65527L39.1602 9.99219C39.1602 9.25846 39.2313 8.56966 39.3735 7.92578C39.5233 7.2819 39.7516 6.71289 40.0586 6.21875C40.3656 5.71712 40.7549 5.3278 41.2266 5.05078C41.7057 4.76628 42.2747 4.62402 42.9336 4.62402C43.0833 4.62402 43.2555 4.64274 43.4502 4.68018C43.6449 4.71012 43.7796 4.74382 43.8545 4.78125ZM50.5928 17.2246C49.7467 17.2246 48.9793 17.0824 48.2905 16.7979C47.6092 16.5059 47.0215 16.0978 46.5273 15.5737C46.0407 15.0496 45.6663 14.4282 45.4043 13.7095C45.1423 12.9907 45.0112 12.2046 45.0112 11.3511V10.8794C45.0112 9.89111 45.1572 9.01139 45.4492 8.24023C45.7412 7.46159 46.138 6.80273 46.6396 6.26367C47.1413 5.72461 47.7103 5.31657 48.3467 5.03955C48.9831 4.76253 49.6419 4.62402 50.3232 4.62402C51.1917 4.62402 51.9404 4.77376 52.5693 5.07324C53.2057 5.37272 53.7261 5.79199 54.1304 6.33105C54.5347 6.86263 54.8341 7.49154 55.0288 8.21777C55.2235 8.93652 55.3208 9.72266 55.3208 10.5762V11.5083H46.2466V9.8125H53.2432V9.65527C53.2132 9.11621 53.1009 8.59212 52.9062 8.08301C52.7191 7.57389 52.4196 7.15462 52.0078 6.8252C51.596 6.49577 51.0345 6.33105 50.3232 6.33105C49.8516 6.33105 49.4173 6.43213 49.0205 6.63428C48.6237 6.82894 48.283 7.12093 47.9985 7.51025C47.714 7.89958 47.4932 8.375 47.3359 8.93652C47.1787 9.49805 47.1001 10.1457 47.1001 10.8794V11.3511C47.1001 11.9276 47.1787 12.4704 47.3359 12.9795C47.5007 13.4811 47.7365 13.9229 48.0435 14.3047C48.3579 14.6865 48.736 14.986 49.1777 15.2031C49.627 15.4202 50.1361 15.5288 50.7051 15.5288C51.4388 15.5288 52.0602 15.3791 52.5693 15.0796C53.0785 14.7801 53.5239 14.3796 53.9058 13.8779L55.1636 14.8774C54.9015 15.2743 54.5684 15.6523 54.1641 16.0117C53.7598 16.3711 53.2619 16.6631 52.6704 16.8877C52.0864 17.1123 51.3939 17.2246 50.5928 17.2246ZM64.8218 13.7769C64.8218 13.4774 64.7544 13.2004 64.6196 12.9458C64.4924 12.6838 64.2266 12.4479 63.8223 12.2383C63.4255 12.0212 62.8265 11.834 62.0254 11.6768C61.3516 11.5345 60.7414 11.366 60.1948 11.1714C59.6558 10.9767 59.1953 10.7409 58.8135 10.4639C58.4391 10.1868 58.1509 9.86117 57.9487 9.48682C57.7466 9.11247 57.6455 8.67448 57.6455 8.17285C57.6455 7.69368 57.7503 7.24072 57.96 6.81396C58.1771 6.38721 58.4803 6.00911 58.8696 5.67969C59.2664 5.35026 59.7419 5.09196 60.2959 4.90479C60.8499 4.71761 61.4676 4.62402 62.1489 4.62402C63.1222 4.62402 63.9533 4.79622 64.6421 5.14062C65.3309 5.48503 65.8587 5.94548 66.2256 6.52197C66.5924 7.09098 66.7759 7.72363 66.7759 8.41992H64.6982C64.6982 8.08301 64.5972 7.75732 64.395 7.44287C64.2004 7.12093 63.9121 6.85514 63.5303 6.64551C63.1559 6.43587 62.6955 6.33105 62.1489 6.33105C61.5724 6.33105 61.1045 6.4209 60.7451 6.60059C60.3932 6.77279 60.1349 6.99365 59.9702 7.26318C59.813 7.53271 59.7344 7.81722 59.7344 8.1167C59.7344 8.34131 59.7718 8.54346 59.8467 8.72314C59.929 8.89535 60.0713 9.05632 60.2734 9.20605C60.4756 9.34831 60.7601 9.48307 61.127 9.61035C61.4938 9.73763 61.9618 9.86491 62.5308 9.99219C63.5265 10.2168 64.3464 10.4863 64.9902 10.8008C65.6341 11.1152 66.1133 11.5008 66.4277 11.9575C66.7422 12.4142 66.8994 12.9683 66.8994 13.6196C66.8994 14.1512 66.7871 14.6379 66.5625 15.0796C66.3454 15.5213 66.0272 15.9032 65.6079 16.2251C65.1961 16.5396 64.702 16.7866 64.1255 16.9663C63.5565 17.1385 62.9163 17.2246 62.2051 17.2246C61.1344 17.2246 60.2285 17.0337 59.4873 16.6519C58.7461 16.27 58.1846 15.7759 57.8027 15.1694C57.4209 14.563 57.23 13.9229 57.23 13.249H59.3188C59.3488 13.818 59.5135 14.271 59.813 14.6079C60.1125 14.9373 60.4793 15.1732 60.9136 15.3154C61.3478 15.4502 61.7783 15.5176 62.2051 15.5176C62.7741 15.5176 63.2495 15.4427 63.6313 15.293C64.0207 15.1432 64.3164 14.9373 64.5186 14.6753C64.7207 14.4132 64.8218 14.1138 64.8218 13.7769ZM76.7036 13.7769C76.7036 13.4774 76.6362 13.2004 76.5015 12.9458C76.3742 12.6838 76.1084 12.4479 75.7041 12.2383C75.3073 12.0212 74.7083 11.834 73.9072 11.6768C73.2334 11.5345 72.6232 11.366 72.0767 11.1714C71.5376 10.9767 71.0771 10.7409 70.6953 10.4639C70.321 10.1868 70.0327 9.86117 69.8306 9.48682C69.6284 9.11247 69.5273 8.67448 69.5273 8.17285C69.5273 7.69368 69.6322 7.24072 69.8418 6.81396C70.0589 6.38721 70.3621 6.00911 70.7515 5.67969C71.1483 5.35026 71.6237 5.09196 72.1777 4.90479C72.7318 4.71761 73.3494 4.62402 74.0308 4.62402C75.0041 4.62402 75.8351 4.79622 76.5239 5.14062C77.2127 5.48503 77.7406 5.94548 78.1074 6.52197C78.4743 7.09098 78.6577 7.72363 78.6577 8.41992H76.5801C76.5801 8.08301 76.479 7.75732 76.2769 7.44287C76.0822 7.12093 75.7939 6.85514 75.4121 6.64551C75.0378 6.43587 74.5773 6.33105 74.0308 6.33105C73.4543 6.33105 72.9863 6.4209 72.627 6.60059C72.2751 6.77279 72.0168 6.99365 71.8521 7.26318C71.6948 7.53271 71.6162 7.81722 71.6162 8.1167C71.6162 8.34131 71.6536 8.54346 71.7285 8.72314C71.8109 8.89535 71.9531 9.05632 72.1553 9.20605C72.3574 9.34831 72.6419 9.48307 73.0088 9.61035C73.3757 9.73763 73.8436 9.86491 74.4126 9.99219C75.4084 10.2168 76.2282 10.4863 76.8721 10.8008C77.516 11.1152 77.9951 11.5008 78.3096 11.9575C78.624 12.4142 78.7812 12.9683 78.7812 13.6196C78.7812 14.1512 78.6689 14.6379 78.4443 15.0796C78.2272 15.5213 77.909 15.9032 77.4897 16.2251C77.078 16.5396 76.5838 16.7866 76.0073 16.9663C75.4383 17.1385 74.7982 17.2246 74.0869 17.2246C73.0163 17.2246 72.1104 17.0337 71.3691 16.6519C70.6279 16.27 70.0664 15.7759 69.6846 15.1694C69.3027 14.563 69.1118 13.9229 69.1118 13.249H71.2007C71.2306 13.818 71.3953 14.271 71.6948 14.6079C71.9943 14.9373 72.3612 15.1732 72.7954 15.3154C73.2297 15.4502 73.6602 15.5176 74.0869 15.5176C74.6559 15.5176 75.1313 15.4427 75.5132 15.293C75.9025 15.1432 76.1982 14.9373 76.4004 14.6753C76.6025 14.4132 76.7036 14.1138 76.7036 13.7769Z" fill="white"/>
</svg>
