<svg width="100" height="100" viewBox="0 0 100 100" fill="none" xmlns="http://www.w3.org/2000/svg">
<path d="M87.2999 40.6C87.2999 39.2389 86.3245 38.1318 85.1312 38.1318H63.8203V43.0637H80.6848L69.6233 52.1788L63.8203 47.4239V53.6806L68.3711 57.3693C69.1106 57.9682 70.1496 57.9682 70.8892 57.3647L82.9625 47.5781V60.6133H63.8203V65.5452H85.1312C86.3245 65.5452 87.2999 64.4426 87.2999 63.077V42.7869C87.2999 42.7279 87.2954 42.6735 87.2909 42.6145C87.2954 42.5555 87.2999 42.4966 87.2999 42.4421V40.6Z" fill="white"/>
<path d="M36.2074 60.4453C39.3199 60.4453 41.3162 56.3437 41.3162 50.2231C41.3162 45.1461 39.8416 40.001 36.2074 40.001C32.3645 40.001 30.9443 45.2141 30.9443 50.2231C30.9443 56.0624 32.7864 60.4453 36.2074 60.4453Z" fill="white"/>
<path d="M13 81.1305L59.256 84.5242V16L13 20.0698V81.1305ZM36.4207 32.4925C44.3198 32.4925 49.5874 39.652 49.5874 49.8742C49.5874 62.3195 42.8951 68.0227 35.9987 68.0227C28.4671 68.0227 22.6732 61.4892 22.6732 50.5049C22.6777 39.5114 28.154 32.4925 36.4207 32.4925Z" fill="white"/>
</svg>