<svg width="67" height="40" viewBox="0 0 67 40" fill="none" xmlns="http://www.w3.org/2000/svg">
<path d="M40.23 3C41.9719 3 43.5149 4.12402 44.0489 5.78209L48.8299 20.6269H45.179H54.9447C54.803 20.6269 54.7142 20.7797 54.7842 20.9027L61.368 32.4919C62.903 35.1937 60.9515 38.5469 57.8442 38.5469C56.1102 38.5469 54.5684 37.4439 54.0084 35.8029L48.8299 20.6269L43.8919 35.7584C43.3492 37.4215 41.7982 38.5469 40.0487 38.5469C36.9472 38.5469 35.0009 35.1987 36.5357 32.5037L40.809 24.9997C42.3539 22.287 42.361 18.9625 40.828 16.2431L36.735 8.98219C35.2274 6.30772 37.1599 3 40.23 3Z" fill="white"/>
<path d="M54 15C56.7614 15 59 12.7614 59 10C59 7.23858 56.7614 5 54 5C51.2386 5 49 7.23858 49 10C49 12.7614 51.2386 15 54 15Z" fill="#3BA9C3"/>
<path d="M20.3302 7.07127C20.3302 4.70492 22.2486 2.78662 24.6149 2.78662C26.9812 2.78662 28.8996 4.70492 28.8996 7.07129V26.0043C28.8996 28.7713 28.3219 31.115 27.1663 33.0357C26.0106 34.94 24.3912 36.3803 22.3079 37.357C20.2246 38.3335 17.7749 38.8218 14.9592 38.8218C12.176 38.8218 9.72649 38.3335 7.6106 37.357C5.51099 36.3803 3.8671 34.94 2.67895 33.0357C1.50708 31.115 0.921143 28.7713 0.921143 26.0043V7.08349C0.921143 4.71039 2.84492 2.78662 5.21802 2.78662C7.59112 2.78662 9.51488 4.71039 9.51488 7.08349V26.0043C9.51488 27.4692 9.72649 28.6655 10.1497 29.5933C10.5728 30.5047 11.1913 31.172 12.0051 31.5952C12.8189 32.0183 13.8036 32.23 14.9592 32.23C16.1311 32.23 17.1158 32.0183 17.9132 31.5952C18.7109 31.172 19.3131 30.5047 19.7199 29.5933C20.1269 28.6655 20.3302 27.4692 20.3302 26.0043V7.07127Z" fill="white"/>
</svg>
