<svg width="18" height="18" viewBox="0 0 18 18" fill="none" xmlns="http://www.w3.org/2000/svg">
<path d="M9 0C4.02946 0 0 4.02946 0 9C0 13.9705 4.02946 18 9 18C13.9705 18 18 13.9706 18 9C18 4.02942 13.9705 0 9 0ZM10.5 14.7663C10.5 15.1058 10.2247 15.381 9.88525 15.381H8.19869C7.85919 15.381 7.58395 15.1058 7.58395 14.7663V7.92301C7.58395 7.58352 7.85915 7.30827 8.19869 7.30827H9.88525C10.2247 7.30827 10.5 7.58348 10.5 7.92301V14.7663ZM9 6.14348C8.15717 6.14348 7.47391 5.46022 7.47391 4.61739C7.47391 3.77456 8.15717 3.0913 9 3.0913C9.84283 3.0913 10.5261 3.77456 10.5261 4.61739C10.5261 5.46022 9.84283 6.14348 9 6.14348Z" fill="white"/>
</svg>
