<svg width="100" height="100" viewBox="0 0 100 100" fill="none" xmlns="http://www.w3.org/2000/svg">
<path d="M37.7689 50.1504C37.7689 43.3115 43.3115 37.7659 50.1504 37.7659C56.9894 37.7659 62.5349 43.3115 62.5349 50.1504C62.5349 56.9894 56.9894 62.5349 50.1504 62.5349C43.3115 62.5349 37.7689 56.9894 37.7689 50.1504ZM31.0741 50.1504C31.0741 60.6863 39.6146 69.2267 50.1504 69.2267C60.6863 69.2267 69.2267 60.6863 69.2267 50.1504C69.2267 39.6146 60.6863 31.0741 50.1504 31.0741C39.6146 31.0741 31.0741 39.614 31.0741 50.1504ZM65.5241 30.3177C65.5238 31.1995 65.7849 32.0615 66.2745 32.7948C66.764 33.5281 67.4601 34.0998 68.2745 34.4375C69.089 34.7753 69.9853 34.8639 70.8502 34.6923C71.715 34.5206 72.5095 34.0963 73.1333 33.4731C73.757 32.8499 74.1819 32.0557 74.3542 31.191C74.5266 30.3263 74.4387 29.4299 74.1016 28.6151C73.7645 27.8004 73.1934 27.1039 72.4604 26.6138C71.7275 26.1236 70.8657 25.8618 69.984 25.8615H69.9822C68.8003 25.862 67.667 26.3316 66.8311 27.1672C65.9952 28.0027 65.5252 29.1359 65.5241 30.3177ZM35.1416 80.3903C31.5196 80.2253 29.551 79.622 28.2427 79.1123C26.5082 78.437 25.2706 77.6328 23.9695 76.3334C22.6683 75.0341 21.8629 73.7977 21.1906 72.0632C20.6806 70.7555 20.0773 68.7862 19.9127 65.1642C19.7325 61.2483 19.6966 60.072 19.6966 50.151C19.6966 40.2301 19.7355 39.057 19.9127 35.1378C20.0776 31.5158 20.6854 29.5504 21.1906 28.2388C21.8659 26.5043 22.6701 25.2668 23.9695 23.9656C25.2688 22.6645 26.5052 21.859 28.2427 21.1868C29.5504 20.6768 31.5196 20.0734 35.1416 19.9088C39.0576 19.7287 40.2339 19.6927 50.1504 19.6927C60.0669 19.6927 61.2444 19.7311 65.1636 19.9094C68.7857 20.0743 70.7511 20.6821 72.0626 21.1874C73.7971 21.8596 75.0346 22.6668 76.3358 23.9662C77.637 25.2656 78.4394 26.5049 79.1147 28.2394C79.6247 29.5471 80.228 31.5164 80.3926 35.1384C80.5727 39.0576 80.6087 40.2307 80.6087 50.1516C80.6087 60.0725 80.5727 61.2456 80.3926 65.1648C80.2277 68.7868 79.6214 70.7555 79.1147 72.0638C78.4394 73.7983 77.6352 75.0358 76.3358 76.334C75.0364 77.6322 73.7971 78.4376 72.0626 79.1129C70.7549 79.6229 68.7857 80.2262 65.1636 80.3908C61.2477 80.571 60.0714 80.6069 50.1504 80.6069C40.2295 80.6069 39.0564 80.5704 35.1416 80.3903ZM34.834 13.225C30.8792 13.4051 28.1767 14.0322 25.8166 14.9505C23.3739 15.8989 21.3033 17.1712 19.2356 19.2356C17.168 21.3 15.8989 23.3709 14.9505 25.8166C14.0322 28.1782 13.4051 30.8792 13.225 34.834C13.0419 38.7952 13 40.0616 13 50.1504C13 60.2393 13.0419 61.5057 13.225 65.4668C13.4051 69.422 14.0322 72.1227 14.9505 74.4842C15.8989 76.9269 17.1683 79.0017 19.2356 81.0652C21.303 83.1287 23.3709 84.3992 25.8166 85.3503C28.1811 86.2686 30.8792 86.8957 34.834 87.0758C38.7972 87.2559 40.0616 87.3008 50.1504 87.3008C60.2393 87.3008 61.5057 87.2589 65.4668 87.0758C69.422 86.8957 72.1227 86.2686 74.4842 85.3503C76.9269 84.3992 78.9976 83.1296 81.0652 81.0652C83.1328 79.0008 84.3992 76.9269 85.3503 74.4842C86.2686 72.1227 86.8987 69.4217 87.0758 65.4668C87.2559 61.5027 87.2979 60.2393 87.2979 50.1504C87.2979 40.0616 87.2559 38.7952 87.0758 34.834C86.8957 30.8789 86.2686 28.1767 85.3503 25.8166C84.3992 23.3739 83.1296 21.3033 81.0652 19.2356C79.0008 17.168 76.9269 15.8989 74.4872 14.9505C72.1226 14.0322 69.4217 13.4021 65.4698 13.225C61.508 13.044 60.2423 13 50.1549 13C40.0675 13 38.7987 13.0419 34.8355 13.225" fill="white"/>
</svg>
